<?xml version="1.0" encoding="UTF-8"?>
<!DOCTYPE svg PUBLIC "-//W3C//DTD SVG 1.1//EN" "http://www.w3.org/Graphics/SVG/1.1/DTD/svg11.dtd">
<svg xmlns="http://www.w3.org/2000/svg" version="1.1" width="1920px" height="1080px" style="shape-rendering:geometricPrecision; text-rendering:geometricPrecision; image-rendering:optimizeQuality; fill-rule:evenodd; clip-rule:evenodd" xmlns:xlink="http://www.w3.org/1999/xlink">
<g><path style="opacity:1" fill="#e6f6f5" d="M -0.5,-0.5 C 135.833,-0.5 272.167,-0.5 408.5,-0.5C 467.668,15.7153 522.668,40.882 573.5,75C 602.625,95.1248 627.458,119.625 648,148.5C 666.235,175.188 678.235,204.522 684,236.5C 689.525,285.512 697.192,334.179 707,382.5C 716.049,426.267 735.382,464.6 765,497.5C 787.413,519.926 811.58,540.093 837.5,558C 865.664,576.25 893.998,594.25 922.5,612C 952.271,633.1 976.438,659.267 995,690.5C 1007.74,715.657 1020.74,740.657 1034,765.5C 1056.48,798.845 1086.98,821.678 1125.5,834C 1152.57,843.35 1180.23,850.35 1208.5,855C 1263.01,862.215 1317.34,870.549 1371.5,880C 1413.42,886.979 1454.09,898.312 1493.5,914C 1514.66,923.184 1533.66,935.517 1550.5,951C 1567.55,968.236 1585.89,983.736 1605.5,997.5C 1626.5,1013.97 1648.5,1029.14 1671.5,1043C 1684.5,1049.78 1697.83,1055.78 1711.5,1061C 1729.57,1067.3 1747.57,1073.47 1765.5,1079.5C 1176.83,1079.5 588.167,1079.5 -0.5,1079.5C -0.5,719.5 -0.5,359.5 -0.5,-0.5 Z"/></g>
<g><path style="opacity:1" fill="#f5fbfb" d="M 408.5,-0.5 C 435.167,-0.5 461.833,-0.5 488.5,-0.5C 542.481,16.3216 591.814,41.8216 636.5,76C 671.478,103.475 697.645,137.641 715,178.5C 718.735,189.039 722.068,199.705 725,210.5C 734.583,262.082 746.583,313.082 761,363.5C 775.23,410.044 800.397,449.544 836.5,482C 862.926,504.053 891.259,523.386 921.5,540C 948.549,554.858 975.883,569.191 1003.5,583C 1034.63,601.458 1061.47,624.958 1084,653.5C 1102.33,682.5 1120.67,711.5 1139,740.5C 1161.4,767.865 1189.57,787.032 1223.5,798C 1263.31,809.973 1303.98,817.307 1345.5,820C 1415.26,823.065 1484.92,829.398 1554.5,839C 1588.27,843.703 1621.27,852.369 1653.5,865C 1670.32,872.571 1685.99,881.904 1700.5,893C 1743.27,927.906 1789.6,957.573 1839.5,982C 1851.34,987.22 1863.34,991.72 1875.5,995.5C 1865.09,993.69 1854.93,991.024 1845,987.5C 1844.51,988.793 1844.34,990.127 1844.5,991.5C 1828.75,985.637 1813.08,979.47 1797.5,973C 1740.14,974.868 1682.81,977.534 1625.5,981C 1618.67,986.334 1612,991.834 1605.5,997.5C 1585.89,983.736 1567.55,968.236 1550.5,951C 1533.66,935.517 1514.66,923.184 1493.5,914C 1454.09,898.312 1413.42,886.979 1371.5,880C 1317.34,870.549 1263.01,862.215 1208.5,855C 1180.23,850.35 1152.57,843.35 1125.5,834C 1086.98,821.678 1056.48,798.845 1034,765.5C 1020.74,740.657 1007.74,715.657 995,690.5C 976.438,659.267 952.271,633.1 922.5,612C 893.998,594.25 865.664,576.25 837.5,558C 811.58,540.093 787.413,519.926 765,497.5C 735.382,464.6 716.049,426.267 707,382.5C 697.192,334.179 689.525,285.512 684,236.5C 678.235,204.522 666.235,175.188 648,148.5C 627.458,119.625 602.625,95.1248 573.5,75C 522.668,40.882 467.668,15.7153 408.5,-0.5 Z"/></g>
<g><path style="opacity:1" fill="#fefefe" d="M 488.5,-0.5 C 965.5,-0.5 1442.5,-0.5 1919.5,-0.5C 1919.5,335.167 1919.5,670.833 1919.5,1006.5C 1904.77,1003.09 1890.11,999.421 1875.5,995.5C 1863.34,991.72 1851.34,987.22 1839.5,982C 1789.6,957.573 1743.27,927.906 1700.5,893C 1685.99,881.904 1670.32,872.571 1653.5,865C 1621.27,852.369 1588.27,843.703 1554.5,839C 1484.92,829.398 1415.26,823.065 1345.5,820C 1303.98,817.307 1263.31,809.973 1223.5,798C 1189.57,787.032 1161.4,767.865 1139,740.5C 1120.67,711.5 1102.33,682.5 1084,653.5C 1061.47,624.958 1034.63,601.458 1003.5,583C 975.883,569.191 948.549,554.858 921.5,540C 891.259,523.386 862.926,504.053 836.5,482C 800.397,449.544 775.23,410.044 761,363.5C 746.583,313.082 734.583,262.082 725,210.5C 722.068,199.705 718.735,189.039 715,178.5C 697.645,137.641 671.478,103.475 636.5,76C 591.814,41.8216 542.481,16.3216 488.5,-0.5 Z"/></g>
<g><path style="opacity:1" fill="#f6f9fe" d="M 1875.5,995.5 C 1890.11,999.421 1904.77,1003.09 1919.5,1006.5C 1919.5,1030.83 1919.5,1055.17 1919.5,1079.5C 1868.17,1079.5 1816.83,1079.5 1765.5,1079.5C 1747.57,1073.47 1729.57,1067.3 1711.5,1061C 1697.83,1055.78 1684.5,1049.78 1671.5,1043C 1648.5,1029.14 1626.5,1013.97 1605.5,997.5C 1612,991.834 1618.67,986.334 1625.5,981C 1682.81,977.534 1740.14,974.868 1797.5,973C 1813.08,979.47 1828.75,985.637 1844.5,991.5C 1844.34,990.127 1844.51,988.793 1845,987.5C 1854.93,991.024 1865.09,993.69 1875.5,995.5 Z"/></g>
</svg>
